# xmcd
#
# Track frame offsets:
#	150
#	13962
#	27765
#	41307
#	57322
#	74495
#	85710
#	101895
#	114250
#	124005
#	138197
#	153480
#	166755
#	178197
#	192867
#	205142
#	218897
#	231705
#	242795
#	253695
#
# Disc length: 3538 seconds
#
# Revision: 0
# Processed by: cddbd v1.5.2PL0 Copyright (c) Steve Scherf et al.
# Submitted via: EasyCDDAExtractor 9.0.0.1
#
DISCID=1b0dd014
DTITLE=LOLA BELTRAN - 20EXITOS
DYEAR=1989
DGENRE=RANCHERA
TTITLE0=ME CAI DE LA NUBE
TTITLE1=MI CIUDAD
TTITLE2=UNA SOMBRA
TTITLE3=PALOMA NEGRA
TTITLE4=CU CURRU CUCU PALOMA
TTITLE5=EL TIEMPO QUE TE QUEDE LIBRE
TTITLE6=HUAPANGO TORERO
TTITLE7=QUE BONITO
TTITLE8=EL REY
TTITLE9=LAS CIUDADES
TTITLE10=TE SOLTE LA RIENDA
TTITLE11=QUE TE VALLA BONITO
TTITLE12=GUADALAJARA
TTITLE13=CHAPALA
TTITLE14=SE ME OLVIDO OTRA VEZ
TTITLE15=TOMAME O DEJAME
TTITLE16=AIRES DE MAYAB
TTITLE17=LA ESTRELLA
TTITLE18=EL ULTIMO TRAGO
TTITLE19=SANGRE CALIENTE
EXTD=
EXTT0=
EXTT1=
EXTT2=
EXTT3=
EXTT4=
EXTT5=
EXTT6=
EXTT7=
EXTT8=
EXTT9=
EXTT10=
EXTT11=
EXTT12=
EXTT13=
EXTT14=
EXTT15=
EXTT16=
EXTT17=
EXTT18=
EXTT19=
PLAYORDER=
